<svg width="111" height="24" viewBox="0 0 111 24" fill="none" xmlns="http://www.w3.org/2000/svg">
<path d="M0 4.5C0 2.01472 2.01472 0 4.5 0H19.5C21.9853 0 24 2.01472 24 4.5V19.5C24 21.9853 21.9853 24 19.5 24H4.5C2.01472 24 0 21.9853 0 19.5V4.5Z" fill="#FF444F"/>
<path d="M4.5 0C2.01472 0 0 2.01472 0 4.5V4.63071L22.4358 1.08948C21.6478 0.4105 20.6218 0 19.5 0H4.5Z" fill="#E12E3A"/>
<path d="M22.899 1.55081L18.7833 24L19.5 24C21.9853 24 24 21.9853 24 19.5V4.5C24 3.37182 23.5848 2.34061 22.899 1.55081Z" fill="#E12E3A"/>
<path d="M7.45441 14.2995C7.53141 14.3065 7.61891 14.3135 7.71691 14.3205C7.82191 14.3205 7.94441 14.3205 8.08441 14.3205C8.90341 14.3205 9.50891 14.114 9.90091 13.701C10.2999 13.288 10.4994 12.7175 10.4994 11.9895C10.4994 11.2265 10.3104 10.649 9.93241 10.257C9.55441 9.86496 8.95591 9.66896 8.13691 9.66896C8.02491 9.66896 7.90941 9.67246 7.79041 9.67946C7.67141 9.67946 7.55941 9.68646 7.45441 9.70046V14.2995ZM12.1899 11.9895C12.1899 12.6195 12.0919 13.169 11.8959 13.638C11.6999 14.107 11.4199 14.4955 11.0559 14.8035C10.6989 15.1115 10.2614 15.3425 9.74341 15.4965C9.22541 15.6505 8.64441 15.7275 8.00041 15.7275C7.70641 15.7275 7.36341 15.7135 6.97141 15.6855C6.57941 15.6645 6.19441 15.6155 5.81641 15.5385V8.45096C6.19441 8.38096 6.58641 8.33546 6.99241 8.31446C7.40541 8.28646 7.75891 8.27246 8.05291 8.27246C8.67591 8.27246 9.23941 8.34246 9.74341 8.48246C10.2544 8.62246 10.6919 8.84296 11.0559 9.14396C11.4199 9.44496 11.6999 9.82996 11.8959 10.299C12.0919 10.768 12.1899 11.3315 12.1899 11.9895Z" fill="white"/>
<path d="M18.184 8.35646V9.75296H15.9895V15.633H14.3515V9.75296H12.157V8.35646H18.184Z" fill="white"/>
<path fill-rule="evenodd" clip-rule="evenodd" d="M36.2464 6.63472L35.6556 9.98502H33.6049C31.6918 9.98502 29.8682 11.5351 29.5302 13.4482L29.3872 14.2626C29.0508 16.1758 30.3272 17.7258 32.2404 17.7258H33.9508C35.3452 17.7258 36.6735 16.597 36.9188 15.2027L38.4939 6.27341L36.2464 6.63472ZM34.7913 14.8867C34.7158 15.3174 34.3281 15.668 33.8973 15.668H32.8582C31.9983 15.668 31.4229 14.97 31.5739 14.1085L31.6635 13.6007C31.8159 12.7408 32.6365 12.0413 33.4964 12.0413H35.293L34.7913 14.8867Z" fill="#414652"/>
<path d="M52.0393 17.7263H54.1678L55.5135 10.0924H53.385L52.0393 17.7263Z" fill="#414652"/>
<path d="M52.1102 11.0876L52.1105 11.0859C52.1638 10.7841 52.2171 10.4822 52.2703 10.1804C50.0862 9.61763 48.385 10.1998 47.6923 10.4867C47.6923 10.4867 46.7041 16.088 46.4149 17.7282H48.5448C48.8905 15.768 49.2362 13.8073 49.5813 11.8471C49.901 11.7833 50.9414 11.6836 51.9498 11.9969C52.0032 11.6938 52.0567 11.3907 52.1102 11.0876Z" fill="#414652"/>
<path fill-rule="evenodd" clip-rule="evenodd" d="M43.638 9.98423H41.9826C40.3681 9.98423 38.8292 11.2922 38.5446 12.9067L38.2098 14.8041C37.9252 16.4186 39.0021 17.7266 40.6166 17.7266H44.141L44.5026 15.6751H41.1903C40.6527 15.6751 40.2927 15.2396 40.3886 14.7004L40.3996 14.6359H45.7398L46.0448 12.9067C46.3292 11.2922 45.2524 9.98423 43.638 9.98423ZM43.9083 12.7432L43.8958 12.8532H40.7203L40.7376 12.7558C40.8334 12.2181 41.324 11.7449 41.8631 11.7449H43.1035C43.6364 11.7449 43.9964 12.2103 43.9083 12.7432Z" fill="#414652"/>
<path d="M59.2129 15.1277C60.1793 13.389 61.2448 11.1078 61.6888 10.0924H63.8204C63.0948 12.0216 61.432 15.3033 59.8212 17.7263H57.6911C56.9517 15.4202 56.4743 12.2069 56.3832 10.0924H58.5133C58.5517 10.7822 58.8605 13.3404 59.2129 15.1277Z" fill="#414652"/>
<path d="M74.6886 7.08597V9.18072H71.3968V18.0007H68.9398V9.18072H65.6481V7.08597H74.6886Z" fill="#414652"/>
<path d="M79.2234 11.7952C79.0134 11.7427 78.7666 11.6902 78.4831 11.6377C78.1996 11.5747 77.8951 11.5432 77.5696 11.5432C77.4226 11.5432 77.2441 11.559 77.0341 11.5905C76.8346 11.6115 76.6824 11.6377 76.5774 11.6692V18.0007H74.2306V10.1572C74.6506 10.0102 75.1441 9.87372 75.7111 9.74772C76.2886 9.61122 76.9291 9.54297 77.6326 9.54297C77.7586 9.54297 77.9109 9.55347 78.0894 9.57447C78.2679 9.58497 78.4464 9.60597 78.6249 9.63747C78.8034 9.65847 78.9819 9.68997 79.1604 9.73197C79.3389 9.76347 79.4911 9.80547 79.6171 9.85797L79.2234 11.7952Z" fill="#414652"/>
<path d="M83.0996 16.3627C83.3306 16.3627 83.5511 16.3575 83.7611 16.347C83.9711 16.3365 84.1391 16.3207 84.2651 16.2997V14.52C84.1706 14.499 84.0289 14.478 83.8399 14.457C83.6508 14.436 83.4776 14.4255 83.3201 14.4255C83.0996 14.4255 82.8896 14.4412 82.6901 14.4727C82.5011 14.4937 82.3331 14.541 82.1861 14.6145C82.0391 14.688 81.9236 14.7877 81.8396 14.9137C81.7556 15.0397 81.7136 15.1972 81.7136 15.3862C81.7136 15.7537 81.8343 16.011 82.0758 16.158C82.3278 16.2945 82.6691 16.3627 83.0996 16.3627ZM82.9106 9.49572C83.6036 9.49572 84.1811 9.57447 84.6431 9.73197C85.1051 9.88947 85.4726 10.1152 85.7456 10.4092C86.0291 10.7032 86.2286 11.0602 86.3441 11.4802C86.4596 11.9002 86.5173 12.3675 86.5173 12.882V17.7645C86.1814 17.838 85.7141 17.922 85.1156 18.0165C84.5171 18.1215 83.7926 18.174 82.9421 18.174C82.4066 18.174 81.9183 18.1267 81.4773 18.0322C81.0468 17.9377 80.6741 17.7855 80.3591 17.5755C80.0441 17.355 79.8026 17.0715 79.6346 16.725C79.4666 16.3785 79.3826 15.9532 79.3826 15.4492C79.3826 14.9662 79.4771 14.5567 79.6661 14.2207C79.8656 13.8847 80.1281 13.617 80.4536 13.4175C80.7791 13.218 81.1518 13.0762 81.5718 12.9922C81.9918 12.8977 82.4276 12.8505 82.8791 12.8505C83.1836 12.8505 83.4513 12.8662 83.6824 12.8977C83.9239 12.9187 84.1181 12.9502 84.2651 12.9922V12.7717C84.2651 12.3727 84.1443 12.0525 83.9028 11.811C83.6614 11.5695 83.2413 11.4487 82.6428 11.4487C82.2439 11.4487 81.8501 11.4802 81.4616 11.5432C81.0731 11.5957 80.7371 11.6745 80.4536 11.7795L80.1543 9.88947C80.2908 9.84747 80.4588 9.80547 80.6583 9.76347C80.8683 9.71097 81.0941 9.66897 81.3356 9.63747C81.5771 9.59547 81.8291 9.56397 82.0916 9.54297C82.3646 9.51147 82.6376 9.49572 82.9106 9.49572Z" fill="#414652"/>
<path d="M89.8522 13.7955C89.8522 14.52 90.0149 15.1027 90.3404 15.5437C90.6659 15.9847 91.1489 16.2052 91.7894 16.2052C91.9994 16.2052 92.1937 16.2 92.3722 16.1895C92.5507 16.1685 92.6977 16.1475 92.8132 16.1265V11.8582C92.6662 11.7637 92.4719 11.685 92.2304 11.622C91.9994 11.559 91.7632 11.5275 91.5217 11.5275C90.4087 11.5275 89.8522 12.2835 89.8522 13.7955ZM95.1599 17.733C94.9499 17.796 94.7084 17.859 94.4354 17.922C94.1624 17.9745 93.8737 18.0217 93.5692 18.0637C93.2752 18.1057 92.9707 18.1372 92.6557 18.1582C92.3512 18.1897 92.0572 18.2055 91.7737 18.2055C91.0912 18.2055 90.4822 18.1057 89.9467 17.9062C89.4112 17.7067 88.9597 17.4232 88.5922 17.0557C88.2247 16.6777 87.9412 16.2262 87.7417 15.7012C87.5527 15.1657 87.4582 14.5672 87.4582 13.9057C87.4582 13.2337 87.5422 12.63 87.7102 12.0945C87.8782 11.5485 88.1197 11.0865 88.4347 10.7085C88.7497 10.3305 89.1329 10.0417 89.5844 9.84222C90.0464 9.64272 90.5714 9.54297 91.1594 9.54297C91.4849 9.54297 91.7737 9.57447 92.0257 9.63747C92.2882 9.70047 92.5507 9.78972 92.8132 9.90522V6.15672L95.1599 5.77872V17.733Z" fill="#414652"/>
<path d="M96.176 13.9215C96.176 13.1865 96.2863 12.546 96.5068 12C96.7378 11.4435 97.037 10.9815 97.4045 10.614C97.772 10.2465 98.1921 9.96822 98.6646 9.77922C99.1476 9.59022 99.6411 9.49572 100.145 9.49572C101.321 9.49572 102.25 9.85797 102.933 10.5825C103.615 11.2965 103.957 12.3517 103.957 13.7482C103.957 13.8847 103.951 14.037 103.941 14.205C103.93 14.3625 103.92 14.5042 103.909 14.6302H98.5858C98.6383 15.1132 98.8641 15.4965 99.2631 15.78C99.6621 16.0635 100.198 16.2052 100.87 16.2052C101.3 16.2052 101.72 16.1685 102.13 16.095C102.55 16.011 102.891 15.9112 103.153 15.7957L103.468 17.7015C103.342 17.7645 103.174 17.8275 102.964 17.8905C102.754 17.9535 102.518 18.006 102.256 18.048C102.004 18.1005 101.731 18.1425 101.437 18.174C101.143 18.2055 100.849 18.2212 100.555 18.2212C99.8091 18.2212 99.1581 18.111 98.6015 17.8905C98.0555 17.67 97.5988 17.3707 97.2313 16.9927C96.8743 16.6042 96.6065 16.1475 96.428 15.6225C96.26 15.0975 96.176 14.5305 96.176 13.9215ZM101.689 13.0237C101.678 12.8242 101.641 12.63 101.578 12.441C101.526 12.252 101.437 12.084 101.311 11.937C101.195 11.79 101.043 11.6692 100.854 11.5747C100.675 11.4802 100.45 11.433 100.177 11.433C99.9141 11.433 99.6883 11.4802 99.4993 11.5747C99.3103 11.6587 99.1528 11.7742 99.0268 11.9212C98.9008 12.0682 98.801 12.2415 98.7276 12.441C98.6646 12.63 98.6173 12.8242 98.5858 13.0237H101.689Z" fill="#414652"/>
<path d="M109.973 11.7952C109.763 11.7427 109.516 11.6902 109.233 11.6377C108.949 11.5747 108.645 11.5432 108.319 11.5432C108.172 11.5432 107.994 11.559 107.784 11.5905C107.584 11.6115 107.432 11.6377 107.327 11.6692V18.0007H104.98V10.1572C105.4 10.0102 105.894 9.87372 106.461 9.74772C107.038 9.61122 107.679 9.54297 108.382 9.54297C108.508 9.54297 108.66 9.55347 108.839 9.57447C109.017 9.58497 109.196 9.60597 109.374 9.63747C109.553 9.65847 109.731 9.68997 109.91 9.73197C110.088 9.76347 110.241 9.80547 110.367 9.85797L109.973 11.7952Z" fill="#414652"/>
</svg>
