<svg width="38" height="24" viewBox="0 0 64 40" fill="none" xmlns="http://www.w3.org/2000/svg"><g clip-path="url(#clip0_2622_204869)"><rect width="64" height="40" rx="4" fill="#151717" /><g filter="url(#filter0_f_2622_204869)"><circle cx="-4" cy="20" r="20" fill="#FF6444" /></g><g filter="url(#filter1_f_2622_204869)"><circle cx="72" cy="20" r="24" fill="#FF444F" /></g></g><path d="M14.1771 16.3801L13.786 18.5981H12.4283C11.1617 18.5981 9.95448 19.6242 9.73072 20.8908L9.63601 21.4299C9.4133 22.6965 10.2584 23.7227 11.525 23.7227H12.6573C13.5804 23.7227 14.4599 22.9754 14.6222 22.0523L15.665 16.1409L14.1771 16.3801ZM13.2138 21.8431C13.1638 22.1283 12.9071 22.3604 12.6219 22.3604H11.934C11.3647 22.3604 10.9838 21.8983 11.0837 21.3279L11.143 20.9918C11.244 20.4225 11.7872 19.9594 12.3565 19.9594H13.5459L13.2138 21.8431ZM24.6327 23.7226L25.5236 18.6687H26.9327L26.0419 23.7226H24.6316H24.6327ZM24.7851 18.727C24.7145 19.1279 24.6436 19.5287 24.5729 19.9296C23.9053 19.7221 23.2166 19.7882 23.0049 19.8304C22.7764 21.1281 22.5476 22.4261 22.3187 23.7238H20.9086C21.1001 22.638 21.7543 18.9298 21.7543 18.9298C22.2129 18.7399 23.3392 18.3544 24.7851 18.727ZM19.0716 18.5972H17.9747C16.9058 18.5972 15.887 19.4631 15.6986 20.5319L15.4769 21.7881C15.2885 22.857 16.0015 23.7229 17.0703 23.7229H19.4037L19.643 22.3647H17.4502C17.0942 22.3647 16.8559 22.0764 16.9194 21.7194L16.9267 21.6768H20.4621L20.664 20.5319C20.8523 19.4631 20.1394 18.5972 19.0706 18.5972H19.0716ZM19.2496 20.4237L19.2413 20.4966H17.139L17.1505 20.432C17.2139 20.0761 17.5387 19.7628 17.8956 19.7628H18.7167C19.0696 19.7628 19.3079 20.0709 19.2496 20.4237ZM32.431 18.6687C31.9506 19.9459 30.8497 22.1184 29.7833 23.7226H28.3731C27.8836 22.1958 27.5675 20.0685 27.5072 18.6687H28.9174C28.9429 19.1253 29.1473 20.819 29.3806 22.0022C30.0204 20.8511 30.7258 19.3409 31.0197 18.6687H32.431Z" fill="#FF444F" /><path d="M36.3781 22.7213C36.3873 22.8705 36.4095 23.0211 36.4449 23.1733C36.48 23.3257 36.5355 23.4892 36.6111 23.6641L35.8213 23.7808C35.7411 23.6383 35.6756 23.4666 35.6244 23.2656C35.4897 23.3953 35.3065 23.5248 35.0748 23.6545C34.843 23.784 34.5522 23.8488 34.2023 23.8488C33.9171 23.8488 33.6683 23.8051 33.4556 23.7176C33.2428 23.6301 33.0635 23.5054 32.9174 23.3434C32.7715 23.1816 32.659 22.9887 32.5806 22.7651C32.502 22.5416 32.4546 22.297 32.4382 22.0313C32.4115 21.5972 32.4583 21.1727 32.5786 20.7581C32.6988 20.3434 32.8932 19.9741 33.1616 19.65C33.4299 19.3261 33.7752 19.0654 34.1972 18.8677C34.6191 18.67 35.1184 18.5711 35.6952 18.5711C35.7664 18.5711 35.8379 18.5745 35.9096 18.5809C35.9813 18.5874 36.0564 18.5972 36.1349 18.61L36.5393 16.3357L37.4725 16.1802L36.4519 21.866C36.4285 22.0151 36.4082 22.1577 36.3907 22.2937C36.3731 22.4298 36.369 22.5723 36.3781 22.7213ZM34.3398 23.081C34.6119 23.081 34.84 23.0243 35.0242 22.9109C35.2083 22.7976 35.3671 22.6664 35.5005 22.5173C35.5005 22.4137 35.5051 22.3019 35.514 22.1819C35.5226 22.0621 35.5389 21.9309 35.5626 21.7884L35.9963 19.3585C35.9372 19.3456 35.8718 19.3375 35.8004 19.3342C35.7288 19.331 35.6607 19.3293 35.596 19.3293C35.2267 19.3293 34.8973 19.4006 34.608 19.5432C34.3188 19.6857 34.0762 19.877 33.8804 20.1166C33.6845 20.3563 33.5395 20.6334 33.4455 20.9475C33.3514 21.2619 33.315 21.5907 33.3361 21.9341C33.3453 22.0832 33.3702 22.2256 33.411 22.3617C33.4518 22.4979 33.511 22.6192 33.589 22.7262C33.6668 22.8331 33.7676 22.9191 33.8916 22.9838C34.0154 23.0487 34.1648 23.081 34.3398 23.081Z" fill="white" /><path d="M39.5285 23.8488C39.1981 23.8488 38.91 23.8017 38.6646 23.7079C38.419 23.614 38.2101 23.4843 38.038 23.3192C37.8659 23.1539 37.7342 22.9612 37.6428 22.7408C37.5515 22.5206 37.4983 22.2873 37.4831 22.0409C37.4552 21.5875 37.4964 21.1501 37.6065 20.7288C37.7167 20.3078 37.8882 19.9352 38.121 19.6111C38.3537 19.2872 38.6456 19.0296 38.9968 18.8384C39.3478 18.6474 39.7533 18.5517 40.2135 18.5517C40.4791 18.5517 40.7095 18.5857 40.905 18.6538C41.1002 18.7218 41.2613 18.8141 41.3886 18.9308C41.5156 19.0474 41.613 19.1819 41.6806 19.3342C41.7483 19.4865 41.7872 19.6437 41.7971 19.8056C41.8159 20.1103 41.7766 20.3678 41.6794 20.5782C41.5821 20.7889 41.4472 20.9654 41.2746 21.108C41.1019 21.2505 40.8966 21.3607 40.6584 21.4383C40.4202 21.5161 40.1712 21.5778 39.9116 21.623C39.652 21.6685 39.3881 21.6993 39.1203 21.7154C38.8523 21.7316 38.5988 21.7462 38.3601 21.7591C38.3567 21.8111 38.356 21.8531 38.358 21.8854C38.3601 21.918 38.3617 21.9438 38.3628 21.9632C38.372 22.1123 38.3985 22.2534 38.4423 22.3861C38.486 22.5189 38.5597 22.6356 38.6631 22.736C38.7664 22.8365 38.9057 22.9157 39.0811 22.9741C39.2563 23.0324 39.4833 23.0615 39.762 23.0615C39.885 23.0615 40.0123 23.0504 40.1437 23.0275C40.2751 23.0049 40.3997 22.9758 40.5175 22.94C40.6351 22.9045 40.7398 22.8688 40.8316 22.8331C40.9233 22.7976 40.9877 22.7636 41.0246 22.7311L41.1496 23.4989C41.0242 23.5703 40.82 23.6464 40.5367 23.7273C40.2533 23.8083 39.9173 23.8488 39.5285 23.8488ZM38.4342 21.069C38.8092 21.0562 39.1511 21.0318 39.46 20.9962C39.7688 20.9607 40.0338 20.899 40.2553 20.8115C40.4767 20.7241 40.646 20.6059 40.7632 20.4567C40.8804 20.3078 40.9316 20.1134 40.9169 19.8735C40.9132 19.8152 40.898 19.7537 40.8715 19.6889C40.8448 19.6242 40.8022 19.5643 40.7438 19.5091C40.6853 19.4541 40.6064 19.4088 40.507 19.373C40.4076 19.3375 40.2865 19.3195 40.1441 19.3195C39.9172 19.3195 39.7081 19.3682 39.5165 19.4654C39.3247 19.5626 39.1561 19.6906 39.0104 19.8493C38.8646 20.0082 38.7431 20.1928 38.646 20.4033C38.5487 20.614 38.4782 20.8357 38.4342 21.069Z" fill="white" /><path d="M47.6298 18.5614C47.9148 18.5614 48.1588 18.6051 48.362 18.6926C48.565 18.7801 48.7309 18.8984 48.8601 19.0474C48.9891 19.1966 49.0855 19.3698 49.1496 19.5675C49.2135 19.7651 49.2524 19.9741 49.2659 20.1943C49.2747 20.3369 49.2727 20.4907 49.2603 20.656C49.2476 20.8212 49.2269 20.9816 49.1976 21.1371L48.7346 23.7225H47.8307L48.257 21.3315C48.2802 21.1824 48.3072 21.0156 48.338 20.8309C48.3687 20.6463 48.3786 20.4632 48.3674 20.2818C48.3598 20.1588 48.3379 20.0388 48.3015 19.9221C48.2652 19.8056 48.2105 19.7052 48.1372 19.6209C48.064 19.5368 47.9642 19.4687 47.8379 19.4167C47.7116 19.365 47.5577 19.339 47.3763 19.339C47.1689 19.339 46.9706 19.3795 46.7812 19.4605C46.5918 19.5416 46.4349 19.6242 46.3105 19.7084C46.329 19.7992 46.3458 19.8881 46.361 19.9756C46.3761 20.0631 46.3862 20.1491 46.3914 20.2331C46.4006 20.3824 46.3984 20.533 46.3851 20.6851C46.3718 20.8374 46.3535 20.9881 46.3304 21.1371L45.8674 23.7225H44.9635L45.3898 21.3315C45.413 21.1824 45.4383 21.0141 45.4656 20.826C45.4929 20.6382 45.5008 20.4503 45.4892 20.2623C45.4817 20.1394 45.4614 20.021 45.4286 19.9076C45.3956 19.7943 45.3458 19.6955 45.2791 19.6111C45.2123 19.527 45.1256 19.4605 45.019 19.4119C44.9123 19.3633 44.7779 19.339 44.6161 19.339C44.454 19.339 44.2974 19.3487 44.1465 19.3682C43.9953 19.3876 43.8689 19.4135 43.7673 19.4458L43.0002 23.7225H42.0962L42.9636 18.8628C43.2496 18.7721 43.5642 18.6992 43.9075 18.6441C44.2507 18.589 44.5585 18.5614 44.8306 18.5614C45.1028 18.5614 45.3355 18.6084 45.5294 18.7023C45.723 18.7964 45.8796 18.921 45.9995 19.0765C46.0614 19.0313 46.1473 18.9793 46.2572 18.921C46.3669 18.8628 46.4932 18.8077 46.6358 18.7559C46.7784 18.704 46.9343 18.6587 47.1036 18.6198C47.2729 18.5809 47.4483 18.5614 47.6298 18.5614Z" fill="white" /><path d="M51.7941 23.8488C51.2627 23.8488 50.8368 23.6918 50.5162 23.3774C50.1956 23.0632 50.0183 22.6307 49.9844 22.0799C49.9613 21.7042 49.9904 21.3088 50.0719 20.8941C50.1532 20.4796 50.2998 20.0971 50.5116 19.7472C50.7233 19.3973 51.0069 19.1091 51.3623 18.8822C51.7176 18.6555 52.1577 18.542 52.6826 18.542C53.2138 18.542 53.6399 18.6992 53.9605 19.0134C54.2812 19.3278 54.4585 19.7602 54.4923 20.3109C54.5155 20.6868 54.4863 21.0822 54.4049 21.4967C54.3235 21.9115 54.1769 22.2937 53.9652 22.6436C53.7534 22.9935 53.4698 23.282 53.1145 23.5086C52.7591 23.7354 52.319 23.8488 51.7941 23.8488ZM51.9024 23.081C52.194 23.081 52.4496 22.9968 52.6692 22.8282C52.8888 22.6598 53.07 22.4443 53.2127 22.1819C53.3552 21.9195 53.4589 21.6296 53.5236 21.312C53.5882 20.9947 53.6115 20.6868 53.5932 20.3886C53.5729 20.0583 53.4854 19.7959 53.331 19.6014C53.1763 19.407 52.9242 19.3098 52.5743 19.3098C52.2827 19.3098 52.0271 19.3941 51.8075 19.5626C51.5878 19.7311 51.4066 19.9465 51.2641 20.2089C51.1213 20.4713 51.0177 20.7614 50.9531 21.0787C50.8883 21.3963 50.8652 21.7042 50.8836 22.0022C50.9039 22.3326 50.9913 22.595 51.1458 22.7894C51.3002 22.9838 51.5525 23.081 51.9024 23.081Z" fill="white" /><defs><filter id="filter0_f_2622_204869" x="-72" y="-48" width="136" height="136" filterUnits="userSpaceOnUse" color-interpolation-filters="sRGB"><feFlood flood-opacity="0" result="BackgroundImageFix" /><feBlend mode="normal" in="SourceGraphic" in2="BackgroundImageFix" result="shape" /><feGaussianBlur stdDeviation="24" result="effect1_foregroundBlur_2622_204869" /></filter><filter id="filter1_f_2622_204869" x="0" y="-52" width="144" height="144" filterUnits="userSpaceOnUse" color-interpolation-filters="sRGB"><feFlood flood-opacity="0" result="BackgroundImageFix" /><feBlend mode="normal" in="SourceGraphic" in2="BackgroundImageFix" result="shape" /><feGaussianBlur stdDeviation="24" result="effect1_foregroundBlur_2622_204869" /></filter><clipPath id="clip0_2622_204869"><rect width="64" height="40" rx="4" fill="white" /></clipPath></defs></svg>