<svg width="24" height="24" viewBox="0 0 24 24" fill="none" xmlns="http://www.w3.org/2000/svg">
<path d="M11.0001 20.0488C11.0001 20.5876 11.5001 21.0244 12.0001 21.0244C12.4643 21.0244 12.9286 20.6478 12.9926 20.1626L13.0001 20.0488H11.0001ZM12.0001 2.97561C11.7223 2.97561 11.5001 3.19247 11.5001 3.46341V5.39182L10.7117 5.55839C7.9841 6.13467 6.00005 8.50622 6.00005 11.2683V17.5261L4.41434 19.0727L19.5829 19.0703L18.0001 17.5261V11.2683C18.0001 8.50622 16.016 6.13467 13.2884 5.55839L12.5001 5.39182V3.46341C12.5001 3.19247 12.2778 2.97561 12.0001 2.97561ZM12.0001 22C10.9858 22 10.0855 21.1957 10.0058 20.1933L10.0001 20.0488H4.41005C3.52005 20.0488 3.08005 18.9951 3.71005 18.3805L5.00005 17.122V11.2683C5.00005 8 7.36005 5.26829 10.5001 4.60488V3.46341C10.5001 2.65366 11.1701 2 12.0001 2C12.8301 2 13.5001 2.65366 13.5001 3.46341V4.60488C16.6401 5.26829 19.0001 8 19.0001 11.2683V17.122L20.2901 18.3805C20.9201 18.9951 20.4701 20.0488 19.5801 20.0488H14.0001C14.0001 21.1173 13.0626 22 12.0001 22Z" fill="#333333"/>
</svg>
