<svg width="16" height="16" viewBox="0 0 16 16" fill="none" xmlns="http://www.w3.org/2000/svg">
<g clip-path="url(#clip0_17913_1069)">
<path d="M9.5 1C10.3284 1 11 1.67157 11 2.5V3H14.5C15.3284 3 16 3.67157 16 4.5V13.5C16 14.3284 15.3284 15 14.5 15H1.5C0.671573 15 0 14.3284 0 13.5V4.5C0 3.67157 0.671573 3 1.5 3H5V2.5C5 1.67157 5.67157 1 6.5 1H9.5ZM15 9.127L12.1959 10.6854L12.0065 10.7803C11.685 10.9248 11.3358 11 10.9817 11H5.01825L4.80659 10.991C4.4554 10.9612 4.11364 10.8573 3.80414 10.6854L1 9.127V13.5L1.00806 13.5899C1.05039 13.8231 1.25454 14 1.5 14H14.5L14.5899 13.9919C14.8231 13.9496 15 13.7455 15 13.5V9.127ZM14.5 4H1.5L1.41012 4.00806C1.17688 4.05039 1 4.25454 1 4.5V7.983L4.28979 9.81124L4.42665 9.87841C4.61308 9.95842 4.81432 10 5.01825 10H10.9817L11.134 9.99225C11.3358 9.97166 11.5319 9.91028 11.7102 9.81124L15 7.983V4.5L14.9919 4.41012C14.9496 4.17688 14.7455 4 14.5 4ZM9.5 8C9.77614 8 10 8.22386 10 8.5C10 8.77614 9.77614 9 9.5 9H6.5L6.41012 8.99194C6.17688 8.94961 6 8.74546 6 8.5C6 8.22386 6.22386 8 6.5 8H9.5ZM9.5 2H6.5C6.22386 2 6 2.22386 6 2.5V3H10V2.5C10 2.22386 9.77614 2 9.5 2Z" fill="#333333"/>
</g>
<defs>
<clipPath id="clip0_17913_1069">
<rect width="16" height="16" fill="white"/>
</clipPath>
</defs>
</svg>
