<svg width="24" height="24" viewBox="0 0 24 24" fill="none" xmlns="http://www.w3.org/2000/svg">
<g clip-path="url(#clip0_17913_2124)">
<path d="M0 2C0 0.895428 0.895431 0 2 0H9.07693C10.1815 0 11.0769 0.895431 11.0769 2V9.07693C11.0769 10.1815 10.1815 11.0769 9.07692 11.0769H2C0.895428 11.0769 0 10.1815 0 9.07692V2Z" fill="#FF444F"/>
<path fill-rule="evenodd" clip-rule="evenodd" d="M22 1H14.9231C14.3708 1 13.9231 1.44771 13.9231 2V9.07692C13.9231 9.62921 14.3708 10.0769 14.9231 10.0769H22C22.5523 10.0769 23 9.62921 23 9.07693V2C23 1.44771 22.5523 1 22 1ZM14.9231 0C13.8185 0 12.9231 0.895428 12.9231 2V9.07692C12.9231 10.1815 13.8185 11.0769 14.9231 11.0769H22C23.1046 11.0769 24 10.1815 24 9.07693V2C24 0.895431 23.1046 0 22 0H14.9231Z" fill="#FF444F"/>
<path fill-rule="evenodd" clip-rule="evenodd" d="M9.07693 13.9231H2C1.44771 13.9231 1 14.3708 1 14.9231V22C1 22.5523 1.44771 23 2 23H9.07692C9.62921 23 10.0769 22.5523 10.0769 22V14.9231C10.0769 14.3708 9.62921 13.9231 9.07693 13.9231ZM2 12.9231C0.895431 12.9231 0 13.8185 0 14.9231V22C0 23.1046 0.895428 24 2 24H9.07692C10.1815 24 11.0769 23.1046 11.0769 22V14.9231C11.0769 13.8185 10.1815 12.9231 9.07693 12.9231H2Z" fill="#FF444F"/>
<path fill-rule="evenodd" clip-rule="evenodd" d="M22 13.9231H14.9231C14.3708 13.9231 13.9231 14.3708 13.9231 14.9231V22C13.9231 22.5523 14.3708 23 14.9231 23H22C22.5523 23 23 22.5523 23 22V14.9231C23 14.3708 22.5523 13.9231 22 13.9231ZM14.9231 12.9231C13.8185 12.9231 12.9231 13.8185 12.9231 14.9231V22C12.9231 23.1046 13.8185 24 14.9231 24H22C23.1046 24 24 23.1046 24 22V14.9231C24 13.8185 23.1046 12.9231 22 12.9231H14.9231Z" fill="#FF444F"/>
</g>
<defs>
<clipPath id="clip0_17913_2124">
<rect width="24" height="24" fill="white"/>
</clipPath>
</defs>
</svg>
